<svg width="100%" height="100%" viewBox="0 0 330 229" fill="none" xmlns="http://www.w3.org/2000/svg">
<rect width="100%" height="100%" rx="20" fill="#B1F6FF"/>
<g clip-path="url(#clip0_1588_128)">
<path d="M290.816 12.8156L292.719 14.7187M285.563 25.5H288.253M290.816 38.1844L292.719 36.2813M316.184 38.1844L314.281 36.2813M321.438 25.5H318.747M316.184 12.8156L314.281 14.7187M303.5 7.5625V10.2531" stroke="#FFD233" stroke-width="4" stroke-linecap="round" stroke-linejoin="round"/>
<path d="M303.5 35.75C309.161 35.75 313.75 31.1606 313.75 25.5C313.75 19.8394 309.161 15.25 303.5 15.25C297.84 15.25 293.25 19.8394 293.25 25.5C293.25 31.1606 297.84 35.75 303.5 35.75Z" fill="#FFD233" stroke="#FFD233" stroke-width="4" stroke-linejoin="round"/>
<path d="M303.5 43.4375V40.7469" stroke="#FFD233" stroke-width="4" stroke-linecap="round" stroke-linejoin="round"/>
</g>
<mask id="mask0_1588_128" style="mask-type:alpha" maskUnits="userSpaceOnUse" x="0" y="31" width="330" height="198">
<rect y="31" width="330" height="198" rx="20" fill="#79F04F"/>
</mask>
<g mask="url(#mask0_1588_128)">
<ellipse cx="164.515" cy="215.779" rx="223.721" ry="73.6071" fill="#79F04F"/>
</g>
<path d="M251 108C255 108.5 273 108 273 108C273 108 288 109 297.5 113.32C308.707 118.416 318.5 116.5 327.5 123C336.5 129.5 310 125 301.5 125C293 125 276.5 120 268 123C259.5 126 231.5 124 228 123C224.5 122 202 119 207.5 115.5C213 112 225 116.5 232.5 112.5C240 108.5 247 107.5 251 108Z" fill="white"/>
<path d="M56.6746 81.745C32.1105 68.0607 5.37913 76.6767 5.37913 76.6767L0.00050251 77.0117L0.000517411 84.0391C0.00057263 90.5578 0.00106854 90.5646 0.320824 94.9089L0.321817 94.9224C0.642565 99.2803 6.1016 95.4293 6.1016 95.4293C6.1016 95.4293 7.54651 92.8951 11.1589 90.8678C14.7713 88.8405 35.7229 92.3883 35.7229 92.3883C35.7229 92.3883 46.5601 95.4293 55.2296 94.9224C63.8992 94.4156 53.7848 85.2928 64.6218 89.8542C75.4588 94.4156 93.5207 92.8951 93.5207 92.8951C93.5207 92.8951 106.525 89.8542 95.6881 86.8132C84.851 83.7723 87.0185 87.8269 80.5162 84.2791C74.0138 80.7313 56.6746 81.745 56.6746 81.745Z" fill="white"/>
<defs>
<clipPath id="clip0_1588_128">
<rect width="41" height="41" fill="white" transform="translate(283 5)"/>
</clipPath>
</defs>
</svg>
