<svg width="22" height="21" viewBox="0 0 22 21" fill="none" xmlns="http://www.w3.org/2000/svg">
<path d="M7.625 1.875C8.33578 1.875 9.03059 2.08577 9.62158 2.48066C10.2126 2.87554 10.6732 3.43681 10.9452 4.09348C11.2172 4.75015 11.2884 5.47274 11.1497 6.16986C11.011 6.86697 10.6688 7.50732 10.1662 8.00991C9.66357 8.51251 9.02322 8.85478 8.32611 8.99345C7.62899 9.13211 6.9064 9.06094 6.24973 8.78894C5.59306 8.51694 5.03179 8.05632 4.63691 7.46533C4.24202 6.87434 4.03125 6.17953 4.03125 5.46875C4.03125 4.51563 4.40988 3.60154 5.08384 2.92759C5.75779 2.25363 6.67188 1.875 7.625 1.875ZM7.625 0.4375C6.62991 0.4375 5.65717 0.732578 4.82979 1.28542C4.0024 1.83826 3.35753 2.62403 2.97673 3.54337C2.59593 4.46271 2.49629 5.47433 2.69042 6.4503C2.88456 7.42626 3.36374 8.32275 4.06737 9.02638C4.771 9.73001 5.66749 10.2092 6.64345 10.4033C7.61942 10.5975 8.63104 10.4978 9.55038 10.117C10.4697 9.73622 11.2555 9.09135 11.8083 8.26396C12.3612 7.43658 12.6562 6.46384 12.6562 5.46875C12.6562 4.13438 12.1262 2.85466 11.1826 1.91112C10.2391 0.967577 8.95937 0.4375 7.625 0.4375ZM14.8125 20.5625H13.375V16.9688C13.375 16.0156 12.9964 15.1015 12.3224 14.4276C11.6485 13.7536 10.7344 13.375 9.78125 13.375H5.46875C4.51563 13.375 3.60154 13.7536 2.92759 14.4276C2.25363 15.1015 1.875 16.0156 1.875 16.9688V20.5625H0.4375V16.9688C0.4375 15.6344 0.967577 14.3547 1.91112 13.4111C2.85466 12.4676 4.13438 11.9375 5.46875 11.9375H9.78125C11.1156 11.9375 12.3953 12.4676 13.3389 13.4111C14.2824 14.3547 14.8125 15.6344 14.8125 16.9688V20.5625ZM14.8125 1.875H22V3.3125H14.8125V1.875ZM14.8125 5.46875H22V6.90625H14.8125V5.46875ZM14.8125 9.0625H19.8438V10.5H14.8125V9.0625Z" fill="#818280"/>
</svg>
