<svg width="23" height="23" viewBox="0 0 23 23" fill="none" xmlns="http://www.w3.org/2000/svg">
	<g clip-path="url(#clip0_284_583)">
		<path d="M11.5 0.766717L11.9983 0.18405C11.8595 0.0652713 11.6827 0 11.5 0C11.3173 0 11.1405 0.0652713 11.0017 0.18405L11.5 0.766717ZM0.766667 9.96672L0.268333 9.38405L0 9.61405V9.96672H0.766667ZM8.43333 22.2334V23C8.63667 23 8.83167 22.9193 8.97545 22.7755C9.11923 22.6317 9.2 22.4367 9.2 22.2334H8.43333ZM14.5667 22.2334H13.8C13.8 22.4367 13.8808 22.6317 14.0246 22.7755C14.1683 22.9193 14.3633 23 14.5667 23V22.2334ZM22.2333 9.96672H23V9.61405L22.7317 9.38405L22.2333 9.96672ZM2.3 23H8.43333V21.4667H2.3V23ZM22.7317 9.38405L11.9983 0.18405L11.0017 1.34938L21.735 10.5494L22.7317 9.38405ZM11.0017 0.18405L0.268333 9.38405L1.265 10.5494L11.9983 1.34938L11.0017 0.18405ZM9.2 22.2334V17.6334H7.66667V22.2334H9.2ZM13.8 17.6334V22.2334H15.3333V17.6334H13.8ZM14.5667 23H20.7V21.4667H14.5667V23ZM23 20.7V9.96672H21.4667V20.7H23ZM0 9.96672V20.7H1.53333V9.96672H0ZM11.5 15.3334C12.11 15.3334 12.695 15.5757 13.1263 16.007C13.5577 16.4384 13.8 17.0234 13.8 17.6334H15.3333C15.3333 16.6167 14.9295 15.6417 14.2106 14.9228C13.4917 14.2039 12.5167 13.8 11.5 13.8V15.3334ZM11.5 13.8C10.4833 13.8 9.50831 14.2039 8.78942 14.9228C8.07053 15.6417 7.66667 16.6167 7.66667 17.6334H9.2C9.2 17.0234 9.44232 16.4384 9.87365 16.007C10.305 15.5757 10.89 15.3334 11.5 15.3334V13.8ZM20.7 23C21.31 23 21.895 22.7577 22.3263 22.3264C22.7577 21.8951 23 21.31 23 20.7H21.4667C21.4667 20.9034 21.3859 21.0984 21.2421 21.2422C21.0983 21.3859 20.9033 21.4667 20.7 21.4667V23ZM2.3 21.4667C2.09667 21.4667 1.90166 21.3859 1.75788 21.2422C1.61411 21.0984 1.53333 20.9034 1.53333 20.7H0C0 21.31 0.242321 21.8951 0.673654 22.3264C1.10499 22.7577 1.69 23 2.3 23V21.4667Z" fill="#818280" />
	</g>
	<defs>
		<clipPath id="clip0_284_583">
			<rect width="23" height="23" fill="white" />
		</clipPath>
	</defs>
</svg>
