<svg width="23" height="23" viewBox="0 0 23 23" fill="none" xmlns="http://www.w3.org/2000/svg">
<path d="M2.5 4H20.5M3.4 7.75703L3.409 7.74672M3.4 15.2523L3.409 15.242M6.1 11.5047L6.109 11.4944M6.1 19L6.109 18.9897M8.8 7.75703L8.809 7.74672M8.8 15.2523L8.809 15.242M11.5 11.5047L11.509 11.4944M11.5 19L11.509 18.9897M14.2 7.75703L14.209 7.74672M14.2 15.2523L14.209 15.242M16.9 11.5047L16.909 11.4944M16.9 19L16.909 18.9897M19.6 7.75703L19.609 7.74672M19.6 15.2523L19.609 15.242" stroke="#818280" stroke-width="1.5" stroke-linecap="round" stroke-linejoin="round"/>
</svg>
