<svg width="85" height="85" viewBox="0 0 85 85" fill="none" xmlns="http://www.w3.org/2000/svg">
<g clip-path="url(#clip0_15_420)">
<path d="M36.55 0V11.1911C23.7524 13.6255 13.6255 23.7524 11.1911 36.55H0V48.45H11.1911C13.6255 61.2476 23.7524 71.3745 36.55 73.8089V85H48.45V73.8089C61.2476 71.3745 71.3745 61.2476 73.8089 48.45H85V36.55H73.8089C71.3745 23.7524 61.2476 13.6255 48.45 11.1911V0H36.55ZM42.5 19.125C45.572 19.1166 48.6154 19.7155 51.4552 20.8872C54.295 22.0589 56.8751 23.7804 59.0474 25.9526C61.2196 28.1249 62.9411 30.705 64.1128 33.5448C65.2845 36.3846 65.8834 39.428 65.875 42.5C65.8834 45.572 65.2845 48.6154 64.1128 51.4552C62.9411 54.295 61.2196 56.8751 59.0474 59.0474C56.8751 61.2196 54.295 62.9411 51.4552 64.1128C48.6154 65.2845 45.572 65.8834 42.5 65.875C39.428 65.8834 36.3846 65.2845 33.5448 64.1128C30.705 62.9411 28.1249 61.2196 25.9526 59.0474C23.7804 56.8751 22.0589 54.295 20.8872 51.4552C19.7155 48.6154 19.1166 45.572 19.125 42.5C19.1166 39.428 19.7155 36.3846 20.8872 33.5448C22.0589 30.705 23.7804 28.1249 25.9526 25.9526C28.1249 23.7804 30.705 22.0589 33.5448 20.8872C36.3846 19.7155 39.428 19.1166 42.5 19.125Z" fill="#416D14" fill-opacity="0.27"/>
</g>
<defs>
<clipPath id="clip0_15_420">
<rect width="85" height="85" fill="white"/>
</clipPath>
</defs>
</svg>
