<svg width="24" height="24" viewBox="0 0 24 24" fill="none" xmlns="http://www.w3.org/2000/svg">
<path d="M12 9.0045C12.5253 9.0045 13.0456 9.10798 13.5309 9.30902C14.0163 9.51006 14.4573 9.80474 14.8288 10.1762C15.2003 10.5477 15.4949 10.9887 15.696 11.4741C15.897 11.9594 16.0005 12.4796 16.0005 13.005C16.0005 13.5304 15.897 14.0506 15.696 14.5359C15.4949 15.0213 15.2003 15.4623 14.8288 15.8338C14.4573 16.2053 14.0163 16.4999 13.5309 16.701C13.0456 16.902 12.5253 17.0055 12 17.0055C10.939 17.0055 9.92145 16.584 9.17122 15.8338C8.42098 15.0835 7.9995 14.066 7.9995 13.005C7.9995 11.944 8.42098 10.9265 9.17122 10.1762C9.92145 9.42598 10.939 9.0045 12 9.0045ZM12 10.5045C11.3368 10.5045 10.7008 10.7679 10.2319 11.2369C9.76294 11.7058 9.4995 12.3418 9.4995 13.005C9.4995 13.6682 9.76294 14.3042 10.2319 14.7731C10.7008 15.2421 11.3368 15.5055 12 15.5055C12.6632 15.5055 13.2992 15.2421 13.7681 14.7731C14.2371 14.3042 14.5005 13.6682 14.5005 13.005C14.5005 12.3418 14.2371 11.7058 13.7681 11.2369C13.2992 10.7679 12.6632 10.5045 12 10.5045ZM12 5.5005C16.614 5.5005 20.595 8.6505 21.7005 13.065C21.7269 13.1614 21.7338 13.2621 21.7208 13.3612C21.7078 13.4603 21.675 13.5558 21.6246 13.6421C21.5741 13.7283 21.5069 13.8037 21.4269 13.8636C21.3469 13.9235 21.2557 13.9668 21.1587 13.991C21.0618 14.0152 20.9609 14.0198 20.8622 14.0045C20.7634 13.9891 20.6687 13.9542 20.5836 13.9018C20.4985 13.8493 20.4248 13.7804 20.3667 13.699C20.3087 13.6177 20.2674 13.5255 20.2455 13.428C19.7814 11.5924 18.718 9.96418 17.2239 8.80126C15.7297 7.63834 13.8903 7.00723 11.9969 7.00792C10.1035 7.00861 8.26455 7.64105 6.77127 8.80506C5.27798 9.96907 4.2158 11.5981 3.753 13.434C3.70351 13.6257 3.58024 13.7901 3.41006 13.8912C3.23988 13.9924 3.03659 14.0222 2.84454 13.9741C2.65249 13.926 2.48726 13.8039 2.38487 13.6344C2.28249 13.465 2.25126 13.2619 2.298 13.0695C2.84054 10.9072 4.08983 8.98806 5.84754 7.61679C7.60525 6.24551 9.77066 5.50067 12 5.5005Z" fill="#416D14" fill-opacity="0.6"/>
</svg>
