<svg width="65" height="65" viewBox="0 0 65 65" fill="none" xmlns="http://www.w3.org/2000/svg">
<path fill-rule="evenodd" clip-rule="evenodd" d="M45.629 12.5144L43.125 4.16667C43.125 2.2099 37.8338 0.625 32.5 0.625C27.1663 0.625 21.875 2.2099 21.875 4.16667L19.371 12.5144C13.3927 13.7929 9.47917 15.9232 9.47917 18.3333C9.47917 22.2469 19.7854 25.4167 32.5 25.4167C45.2146 25.4167 55.5208 22.2469 55.5208 18.3333C55.5208 15.9232 51.6073 13.7929 45.629 12.5144ZM39.8171 5.46646C39.4653 5.29377 39.1006 5.14872 38.7263 5.0326C37.1449 4.52438 34.8641 4.16667 32.5 4.16667C30.1359 4.16667 27.8551 4.52437 26.2738 5.03437C25.7744 5.19375 25.4184 5.34604 25.1829 5.46646L23.8884 9.78198C29.6035 10.5546 35.3965 10.5546 41.1116 9.78198L39.8171 5.46646ZM42.1404 13.2121C41.5426 13.3014 40.9434 13.3811 40.343 13.4511C35.1319 14.0578 29.8681 14.0578 24.657 13.4511C24.0566 13.3813 23.4574 13.3016 22.8596 13.2121L22.1601 15.539L20.1113 15.9781C17.3063 16.5767 15.2308 17.331 13.9488 18.0677C13.8042 18.1516 13.6625 18.2402 13.5238 18.3333C14.2675 18.8345 15.4947 19.4135 17.2638 19.9572C21.0073 21.1082 26.3942 21.875 32.5 21.875C38.6058 21.875 43.9927 21.1082 47.7363 19.9572C49.5053 19.4135 50.7325 18.8345 51.4763 18.3316C51.3375 18.2396 51.1957 18.1522 51.0513 18.0695C49.7692 17.331 47.6938 16.5767 44.8888 15.9781L42.8399 15.539L42.1404 13.2121ZM52.0854 17.8269C52.0905 17.8165 52.097 17.807 52.1049 17.7985C52.1049 17.7985 52.0996 17.8092 52.0854 17.8269ZM12.8951 17.7985C12.8951 17.7985 12.904 17.8074 12.9128 17.8269C12.9055 17.8184 12.8995 17.8089 12.8951 17.7985ZM12.9093 18.8522L12.9217 18.8327L12.9181 18.8398C12.9147 18.8435 12.9117 18.8477 12.9093 18.8522ZM24.8482 5.66833C24.8406 5.67353 24.8335 5.67946 24.827 5.68604L24.8553 5.66125L24.8482 5.66833ZM40.1447 5.66125L40.1748 5.68604C40.1634 5.67955 40.1532 5.67117 40.1447 5.66125Z" fill="#416D14" fill-opacity="0.27"/>
<path d="M18.3369 23.9185C18.4087 27.6275 19.9326 31.1604 22.581 33.7581C25.2294 36.3557 28.7912 37.8109 32.5009 37.8109C36.2106 37.8109 39.7723 36.3557 42.4208 33.7581C45.0692 31.1604 46.5931 27.6275 46.6649 23.9185C45.4798 24.2008 44.2841 24.4371 43.0807 24.6269C42.8391 27.266 41.6198 29.7196 39.6623 31.506C37.7047 33.2925 35.1502 34.2829 32.5 34.2829C29.8498 34.2829 27.2953 33.2925 25.3377 31.506C23.3802 29.7196 22.1609 27.266 21.9193 24.6269C20.7164 24.437 19.5214 24.2007 18.3369 23.9185Z" fill="#416D14" fill-opacity="0.27"/>
<path fill-rule="evenodd" clip-rule="evenodd" d="M14.4906 64.375C14.6854 63.8207 14.7917 63.224 14.7917 62.6042V60.8334H50.2083V55.5209H43.7448C42.826 55.8276 41.8936 56.0918 40.9504 56.3124C38.1804 56.9611 35.345 57.2896 32.5 57.2917C29.0681 57.2917 26.1356 56.8029 24.0514 56.3124C23.1076 56.0918 22.1746 55.8277 21.2552 55.5209H17.1239C18.4911 54.6119 19.6303 53.4 20.453 51.9792H21.875V42.0873C25.3975 41.6175 28.9464 41.3726 32.5 41.3542C43.1392 41.3542 64.375 44.1574 64.375 53.75V64.375H14.4906ZM58.7703 50.6032C60.3942 51.8163 60.8333 52.854 60.8333 53.75V60.8334H53.75V53.75C53.75 53.2804 53.5634 52.8299 53.2313 52.4979C52.8992 52.1658 52.4488 51.9792 51.9792 51.9792V47.5149C54.8692 48.3826 57.2014 49.431 58.7703 50.6032ZM43.125 45.6626C44.9012 45.907 46.6968 46.2187 48.4375 46.6012V51.9792H43.125V45.6609V45.6626ZM32.5 44.8959C34.8653 44.9051 37.2289 45.0233 39.5833 45.25V52.9886C37.2558 53.4921 34.8814 53.7473 32.5 53.75C30.1186 53.7473 27.7442 53.4921 25.4167 52.9886V45.25C28.0145 45.0056 30.46 44.8959 32.5 44.8959Z" fill="#416D14" fill-opacity="0.27"/>
<path d="M4.16667 34.2708C4.16667 33.8012 3.9801 33.3508 3.648 33.0187C3.31591 32.6866 2.86549 32.5 2.39583 32.5C1.92618 32.5 1.47576 32.6866 1.14367 33.0187C0.81157 33.3508 0.625 33.8012 0.625 34.2708V46.6667C0.625 48.5453 1.37128 50.347 2.69966 51.6753C4.02804 53.0037 5.82972 53.75 7.70833 53.75V62.6042C7.70833 63.0738 7.8949 63.5242 8.227 63.8563C8.55909 64.1884 9.00951 64.375 9.47917 64.375C9.94882 64.375 10.3992 64.1884 10.7313 63.8563C11.0634 63.5242 11.25 63.0738 11.25 62.6042V53.75C13.1286 53.75 14.9303 53.0037 16.2587 51.6753C17.5871 50.347 18.3333 48.5453 18.3333 46.6667V34.2708C18.3333 33.8012 18.1468 33.3508 17.8147 33.0187C17.4826 32.6866 17.0322 32.5 16.5625 32.5C16.0928 32.5 15.6424 32.6866 15.3103 33.0187C14.9782 33.3508 14.7917 33.8012 14.7917 34.2708V46.6667C14.7917 47.606 14.4185 48.5068 13.7543 49.171C13.0901 49.8352 12.1893 50.2083 11.25 50.2083V34.2708C11.25 33.8012 11.0634 33.3508 10.7313 33.0187C10.3992 32.6866 9.94882 32.5 9.47917 32.5C9.00951 32.5 8.55909 32.6866 8.227 33.0187C7.8949 33.3508 7.70833 33.8012 7.70833 34.2708V50.2083C6.76902 50.2083 5.86819 49.8352 5.204 49.171C4.53981 48.5068 4.16667 47.606 4.16667 46.6667V34.2708Z" fill="#416D14" fill-opacity="0.27"/>
</svg>
