<svg width="85" height="85" viewBox="0 0 85 85" fill="none" xmlns="http://www.w3.org/2000/svg">
<path d="M79.6875 50.4688H69.0625V39.8438H63.75V63.75H21.25V21.25H45.1562V15.9375H34.5312V5.3125H29.2188V15.9375H21.25C19.8415 15.9389 18.491 16.4991 17.495 17.495C16.4991 18.491 15.9389 19.8415 15.9375 21.25V29.2188H5.3125V34.5312H15.9375V50.4688H5.3125V55.7812H15.9375V63.75C15.9389 65.1585 16.4991 66.509 17.495 67.505C18.491 68.5009 19.8415 69.0611 21.25 69.0625H29.2188V79.6875H34.5312V69.0625H50.4688V79.6875H55.7812V69.0625H63.75C65.1583 69.0604 66.5083 68.5 67.5042 67.5042C68.5 66.5083 69.0604 65.1583 69.0625 63.75V55.7812H79.6875V50.4688Z" fill="#416D14" fill-opacity="0.27"/>
<path d="M55.7812 55.7812H29.2188V29.2188H55.7812V55.7812ZM34.5312 50.4688H50.4688V34.5312H34.5312V50.4688ZM82.3438 34.5312H77.0312C77.0228 27.489 74.2216 20.7377 69.242 15.758C64.2623 10.7784 57.511 7.97719 50.4688 7.96875V2.65625C58.9197 2.66539 67.0219 6.02658 72.9977 12.0023C78.9734 17.9781 82.3346 26.0803 82.3438 34.5312Z" fill="#416D14" fill-opacity="0.27"/>
<path d="M69.0625 34.5312H63.75C63.7458 31.0101 62.3452 27.6345 59.8554 25.1446C57.3656 22.6548 53.9899 21.2542 50.4688 21.25V15.9375C55.3984 15.9431 60.1245 17.9039 63.6103 21.3897C67.0961 24.8755 69.0569 29.6016 69.0625 34.5312Z" fill="#416D14" fill-opacity="0.27"/>
</svg>
