<svg width="23" height="23" viewBox="0 0 23 23" fill="none" xmlns="http://www.w3.org/2000/svg">
<path d="M4.72365 4.72364C4.9044 4.54907 5.14647 4.45248 5.39774 4.45466C5.64902 4.45685 5.88938 4.55763 6.06706 4.73532C6.24474 4.913 6.34553 5.15336 6.34771 5.40463C6.3499 5.6559 6.2533 5.89798 6.07873 6.07872C5.36564 6.78979 4.80015 7.63481 4.41481 8.5652C4.02946 9.49559 3.83186 10.493 3.83336 11.5C3.83175 12.5071 4.02931 13.5045 4.41466 14.4349C4.80001 15.3653 5.36555 16.2103 6.07873 16.9213C6.17379 17.0088 6.25018 17.1146 6.3033 17.2324C6.35643 17.3501 6.38519 17.4774 6.38787 17.6066C6.39054 17.7358 6.36708 17.8641 6.31887 17.984C6.27067 18.1038 6.19874 18.2127 6.10738 18.3041C6.01603 18.3954 5.90715 18.4674 5.78729 18.5156C5.66742 18.5638 5.53905 18.5872 5.40989 18.5846C5.28072 18.5819 5.15344 18.5531 5.03567 18.5C4.91791 18.4469 4.8121 18.3705 4.72461 18.2754C3.83346 17.3866 3.12667 16.3305 2.6448 15.1678C2.16294 14.0051 1.9155 12.7586 1.91669 11.5C1.91525 10.2413 2.16247 8.99471 2.64417 7.83181C3.12588 6.66892 3.83256 5.61264 4.72365 4.72364ZM16.9213 4.72364C17.101 4.54398 17.3447 4.44305 17.5989 4.44305C17.853 4.44305 18.0967 4.54398 18.2764 4.72364C19.1675 5.61264 19.8742 6.66892 20.3559 7.83181C20.8376 8.99471 21.0848 10.2413 21.0834 11.5C21.0848 12.7587 20.8376 14.0053 20.3559 15.1682C19.8742 16.3311 19.1675 17.3874 18.2764 18.2764C18.0957 18.451 17.8536 18.5476 17.6023 18.5454C17.351 18.5432 17.1107 18.4424 16.933 18.2647C16.7553 18.087 16.6545 17.8467 16.6523 17.5954C16.6502 17.3441 16.7467 17.1021 16.9213 16.9213C17.6344 16.2102 18.1999 15.3652 18.5852 14.4348C18.9706 13.5044 19.1682 12.507 19.1667 11.5C19.1683 10.493 18.9707 9.49554 18.5854 8.56514C18.2 7.63474 17.6345 6.78972 16.9213 6.07872C16.7417 5.89901 16.6407 5.6553 16.6407 5.40118C16.6407 5.14707 16.7417 4.90335 16.9213 4.72364ZM8.78986 7.43381C8.87896 7.52281 8.94965 7.6285 8.99788 7.74484C9.0461 7.86118 9.07093 7.98589 9.07093 8.11183C9.07093 8.23777 9.0461 8.36247 8.99788 8.47881C8.94965 8.59515 8.87896 8.70085 8.78986 8.78985C8.4332 9.14522 8.15034 9.56763 7.95758 10.0328C7.76482 10.4979 7.66596 10.9965 7.66669 11.5C7.66669 12.5829 8.11424 13.5585 8.83586 14.2571C8.93026 14.3436 9.00637 14.4482 9.0597 14.5646C9.11303 14.681 9.1425 14.8069 9.14636 14.9348C9.15022 15.0628 9.1284 15.1903 9.08218 15.3097C9.03597 15.4291 8.96629 15.538 8.87728 15.63C8.78826 15.7221 8.68171 15.7953 8.56391 15.8455C8.44611 15.8956 8.31946 15.9217 8.19142 15.9221C8.06339 15.9225 7.93658 15.8972 7.81847 15.8478C7.70036 15.7983 7.59336 15.7257 7.50378 15.6343C6.94838 15.0986 6.5068 14.4563 6.20546 13.7459C5.90411 13.0355 5.74921 12.2717 5.75003 11.5C5.75003 9.91206 6.39499 8.4736 7.43382 7.43381C7.52282 7.34471 7.62851 7.27402 7.74485 7.22579C7.86119 7.17756 7.9859 7.15274 8.11184 7.15274C8.23778 7.15274 8.36248 7.17756 8.47882 7.22579C8.59516 7.27402 8.70086 7.34471 8.78986 7.43381ZM15.6036 7.47214C16.6603 8.54633 17.2517 9.99323 17.25 11.5C17.251 12.2553 17.1027 13.0033 16.8137 13.7011C16.5248 14.3989 16.1008 15.0327 15.5662 15.5662C15.3864 15.746 15.1425 15.8471 14.8882 15.8471C14.6339 15.8471 14.39 15.746 14.2102 15.5662C14.0304 15.3864 13.9293 15.1425 13.9293 14.8882C13.9293 14.6339 14.0304 14.39 14.2102 14.2102C14.5669 13.8548 14.8497 13.4324 15.0425 12.9673C15.2352 12.5022 15.3341 12.0035 15.3334 11.5C15.3334 10.4545 14.9155 9.50668 14.2361 8.81477C14.0624 8.63256 13.9674 8.38935 13.9715 8.13766C13.9757 7.88598 14.0787 7.64604 14.2584 7.46969C14.438 7.29335 14.6798 7.19475 14.9315 7.19521C15.1832 7.19567 15.4246 7.29514 15.6036 7.47214ZM11.5 10.0625C11.8813 10.0625 12.2469 10.214 12.5165 10.4836C12.7861 10.7531 12.9375 11.1188 12.9375 11.5C12.9375 11.8813 12.7861 12.2469 12.5165 12.5165C12.2469 12.7861 11.8813 12.9375 11.5 12.9375C11.1188 12.9375 10.7531 12.7861 10.4836 12.5165C10.214 12.2469 10.0625 11.8813 10.0625 11.5C10.0625 11.1188 10.214 10.7531 10.4836 10.4836C10.7531 10.214 11.1188 10.0625 11.5 10.0625Z" fill="#818280"/>
</svg>
