<svg width="21" height="22" viewBox="0 0 21 22" fill="none" xmlns="http://www.w3.org/2000/svg">
<g id="maki:windmill">
<path id="Vector" d="M8.4002 7.50001L4.9002 11L6.3002 12.4L9.8002 8.90001V8.20001L10.5002 7.50001L11.2002 8.20001V8.90001L14.7002 12.4L16.1002 11L12.6002 7.50001H11.9002L11.2002 6.80001L11.9002 6.10001H12.6002L16.1002 2.60001L14.7002 1.20001L11.2002 4.70001V5.40001L10.5002 6.10001L9.8002 5.40001V4.70001L6.3002 1.20001L4.9002 2.60001L8.4002 6.10001H9.1002L9.8002 6.80001L9.1002 7.50001H8.4002ZM16.1002 18.7H14.7002L13.3002 13.1L10.5002 10.3L7.7002 13.1L6.3002 18.7H4.9002C4.71454 18.7 4.5365 18.7738 4.40522 18.905C4.27395 19.0363 4.2002 19.2144 4.2002 19.4C4.2002 19.5857 4.27395 19.7637 4.40522 19.895C4.5365 20.0263 4.71454 20.1 4.9002 20.1H16.1002C16.2858 20.1 16.4639 20.0263 16.5952 19.895C16.7264 19.7637 16.8002 19.5857 16.8002 19.4C16.8002 19.2144 16.7264 19.0363 16.5952 18.905C16.4639 18.7738 16.2858 18.7 16.1002 18.7ZM11.2002 18.7H9.8002V16.5972C9.8002 16.2122 10.1124 15.9 10.4974 15.9C10.8852 15.9 11.2002 16.215 11.2002 16.6028V18.7Z" fill="#818280"/>
</g>
</svg>
