<svg width="21" height="22" viewBox="0 0 21 22" fill="none" xmlns="http://www.w3.org/2000/svg">
<g id="fontisto:day-rain" clip-path="url(#clip0_814_868)">
<path id="Vector" d="M3.15009 21.3407C3.10153 21.2906 3.06299 21.2309 3.03669 21.1651C3.01039 21.0993 2.99685 21.0288 2.99685 20.9575C2.99685 20.8862 3.01039 20.8157 3.03669 20.7499C3.06299 20.6841 3.10153 20.6244 3.15009 20.5742L5.84229 17.7699C5.91391 17.6914 6.0065 17.6371 6.10808 17.614C6.20967 17.5909 6.31556 17.6002 6.41204 17.6405C6.50852 17.6809 6.59114 17.7505 6.64921 17.8403C6.70728 17.9301 6.73812 18.0361 6.73773 18.1444C6.73786 18.2175 6.7237 18.2899 6.69612 18.3571C6.66853 18.4244 6.62811 18.485 6.57729 18.5355L3.88425 21.3399C3.83602 21.3903 3.77868 21.4304 3.71554 21.4577C3.65241 21.4851 3.58471 21.4991 3.51633 21.4991C3.44796 21.4991 3.38026 21.4851 3.31712 21.4577C3.25398 21.4304 3.19665 21.3903 3.14841 21.3399L3.15009 21.3407ZM8.62773 18.6869C8.57917 18.6367 8.54063 18.577 8.51433 18.5112C8.48803 18.4454 8.47449 18.3749 8.47449 18.3036C8.47449 18.2324 8.48803 18.1618 8.51433 18.096C8.54063 18.0303 8.57917 17.9706 8.62773 17.9204L10.6051 15.8606H5.11065L2.39745 18.6869C2.34919 18.7372 2.29189 18.7771 2.22881 18.8044C2.16573 18.8317 2.09812 18.8457 2.02983 18.8457C1.96154 18.8458 1.89391 18.8318 1.8308 18.8046C1.7677 18.7774 1.71035 18.7376 1.66203 18.6873C1.61372 18.637 1.57538 18.5773 1.54921 18.5116C1.52304 18.4459 1.50955 18.3755 1.50951 18.3044C1.50947 18.2332 1.52288 18.1628 1.54898 18.097C1.57508 18.0313 1.61335 17.9716 1.66161 17.9212L3.64905 15.8501C3.14889 15.8484 2.65411 15.7424 2.19384 15.5385C1.73357 15.3346 1.31711 15.0368 0.968949 14.6628C0.620791 14.2887 0.347975 13.8459 0.166555 13.3604C-0.0148655 12.8748 -0.101225 12.3564 -0.0874429 11.8356C-0.0736605 11.3148 0.0399858 10.8021 0.246809 10.3277C0.453631 9.85337 0.749452 9.42687 1.11686 9.07336C1.48428 8.71984 1.91586 8.44645 2.38621 8.26926C2.85657 8.09208 3.35619 8.01468 3.85569 8.04162H3.85065C3.90945 8.04162 3.96657 8.046 4.02453 8.0495C4.90989 6.42375 6.55797 5.34312 8.44965 5.33787H8.45805C9.25353 5.33787 10.0062 5.53037 10.6748 5.8725L10.6454 5.8585C10.993 5.46637 11.4156 5.15457 11.8861 4.94324L11.9096 4.93362C12.7724 4.55383 13.7423 4.53391 14.6187 4.87798C15.4952 5.22205 16.2112 5.9038 16.6187 6.78227C17.0263 7.66074 17.0941 8.66874 16.8083 9.59788C16.5225 10.527 15.9049 11.3062 15.0831 11.7744L15.0638 11.784C15.3075 12.1854 15.4433 12.6475 15.457 13.1221C15.4708 13.5968 15.3621 14.0666 15.1422 14.4826C14.9223 14.8986 14.5992 15.2454 14.2068 15.4871C13.8143 15.7287 13.3668 15.8562 12.9109 15.8562H12.0768L9.36357 18.6825C9.31539 18.7331 9.25808 18.7732 9.19493 18.8006C9.13179 18.828 9.06406 18.8421 8.99565 18.8421C8.92725 18.8421 8.85952 18.828 8.79637 18.8006C8.73323 18.7732 8.67591 18.7331 8.62773 18.6825V18.6869ZM1.13913 11.9511C1.1398 12.7001 1.42566 13.4182 1.934 13.9479C2.44234 14.4776 3.13164 14.7756 3.85065 14.7765H12.905C13.1484 14.7765 13.3882 14.7153 13.604 14.5981C13.8198 14.4809 14.0053 14.3111 14.1447 14.1032C14.284 13.8954 14.3731 13.6555 14.4044 13.4041C14.4358 13.1527 14.4083 12.8971 14.3245 12.6591C14.2407 12.421 14.1029 12.2076 13.923 12.0369C13.743 11.8662 13.5261 11.7433 13.2908 11.6786C13.0554 11.6139 12.8086 11.6094 12.5712 11.6654C12.3338 11.7213 12.1129 11.8362 11.9273 12.0001L11.9298 11.9984C11.8246 12.0913 11.6883 12.1369 11.5509 12.1252C11.4134 12.1135 11.2861 12.0453 11.1969 11.9358C11.1076 11.8263 11.0639 11.6843 11.0751 11.5411C11.0864 11.398 11.1518 11.2653 11.2569 11.1724L11.2578 11.1715C11.6001 10.8688 12.0135 10.6662 12.4556 10.5844L12.4707 10.5817C12.4649 9.68856 12.1851 8.82071 11.6721 8.10501C11.159 7.38931 10.4397 6.86327 9.61922 6.60376C8.79873 6.34425 7.92007 6.36486 7.11163 6.6626C6.30319 6.96033 5.60734 7.51958 5.12577 8.25862L5.11653 8.2735C5.52981 8.42924 5.88681 8.641 6.20181 8.90437L6.19425 8.89824C6.25129 8.94135 6.29933 8.99607 6.33547 9.05908C6.37161 9.12209 6.3951 9.19209 6.40452 9.26483C6.41394 9.33757 6.40908 9.41155 6.39026 9.48228C6.37143 9.55301 6.33902 9.61903 6.29498 9.67634C6.25095 9.73364 6.19621 9.78104 6.13408 9.81567C6.07195 9.8503 6.00372 9.87143 5.93352 9.87779C5.86332 9.88415 5.79261 9.87561 5.72567 9.85267C5.65874 9.82974 5.59696 9.7929 5.54409 9.74437L5.54493 9.74524C5.06853 9.34343 4.47372 9.12495 3.86073 9.12662H3.85317C3.13379 9.12708 2.44398 9.42485 1.93514 9.95456C1.4263 10.4843 1.14002 11.2026 1.13913 11.952V11.9511ZM12.3128 5.93375C12.0205 6.06675 11.7693 6.24 11.5526 6.45262L11.5543 6.45087C12.1639 6.94265 12.6574 7.57331 12.9968 8.29451C13.3362 9.01572 13.5125 9.8083 13.5123 10.6115V10.6211C13.8072 10.6972 14.0667 10.818 14.2994 10.9764L14.2902 10.9702C14.7755 10.7683 15.1917 10.4196 15.4851 9.96904C15.7786 9.51851 15.9358 8.98679 15.9366 8.44237C15.9366 7.7476 15.6815 7.07913 15.2236 6.57398C14.7657 6.06883 14.1396 5.76526 13.4737 5.7255H13.467C13.4194 5.72316 13.3718 5.72199 13.3242 5.72199H13.3175C12.9546 5.72199 12.6093 5.79987 12.296 5.93987L12.3128 5.93375ZM17.688 14.3224L16.4456 12.8812C16.3999 12.8283 16.3647 12.7666 16.342 12.6995C16.3192 12.6324 16.3094 12.5613 16.313 12.4902C16.3166 12.4192 16.3337 12.3496 16.3631 12.2854C16.3926 12.2212 16.4339 12.1636 16.4847 12.1161C16.5355 12.0685 16.5948 12.0318 16.6592 12.0081C16.7236 11.9844 16.7918 11.9741 16.8601 11.9779C16.9283 11.9817 16.9951 11.9994 17.0567 12.0301C17.1184 12.0608 17.1736 12.1038 17.2193 12.1567L17.2201 12.1576L18.4625 13.5996C18.5081 13.6525 18.5433 13.7143 18.5661 13.7814C18.5888 13.8485 18.5987 13.9196 18.5951 13.9906C18.5914 14.0617 18.5744 14.1313 18.545 14.1955C18.5155 14.2597 18.4742 14.3172 18.4234 14.3648C18.3726 14.4124 18.3133 14.4491 18.2489 14.4728C18.1845 14.4965 18.1162 14.5067 18.048 14.5029C17.9798 14.4992 17.913 14.4814 17.8513 14.4507C17.7897 14.4201 17.7345 14.377 17.6888 14.3241L17.688 14.3232V14.3224ZM20.4012 9.38562L18.5431 9.28062C18.4113 9.2681 18.289 9.20379 18.2011 9.10076C18.1132 8.99773 18.0662 8.86369 18.0698 8.72589C18.0733 8.58809 18.1271 8.45686 18.2201 8.35886C18.3132 8.26085 18.4386 8.20343 18.5708 8.19825L18.6002 8.19912H18.5985L20.4558 8.30412C20.5876 8.31664 20.7098 8.38095 20.7977 8.48398C20.8857 8.58702 20.9326 8.72105 20.9291 8.85885C20.9256 8.99664 20.8718 9.12788 20.7787 9.22588C20.6857 9.32389 20.5603 9.38131 20.4281 9.3865L20.4012 9.38562ZM16.8488 5.15062C16.803 5.09781 16.7677 5.03608 16.7449 4.96899C16.722 4.9019 16.7122 4.83077 16.7158 4.75969C16.7195 4.68861 16.7366 4.619 16.7662 4.55484C16.7958 4.49069 16.8373 4.43326 16.8883 4.38587H16.8891L18.2735 3.09174C18.3243 3.04417 18.3835 3.00749 18.448 2.98379C18.5124 2.96009 18.5806 2.94983 18.6488 2.95361C18.717 2.95739 18.7839 2.97513 18.8455 3.00581C18.9071 3.03649 18.9624 3.07952 19.008 3.13243C19.0537 3.18535 19.0889 3.24711 19.1117 3.3142C19.1344 3.3813 19.1443 3.4524 19.1406 3.52345C19.137 3.59451 19.12 3.66412 19.0905 3.72832C19.0611 3.79252 19.0198 3.85005 18.969 3.89762L18.9681 3.89849L17.5838 5.19262C17.5331 5.24034 17.4739 5.27714 17.4094 5.30092C17.345 5.32469 17.2768 5.33496 17.2085 5.33114C17.1403 5.32731 17.0735 5.30947 17.0119 5.27864C16.9503 5.24781 16.8951 5.2046 16.8497 5.15149L16.8488 5.15062ZM9.42825 4.73149L8.18589 3.28862C8.14022 3.23559 8.10503 3.17371 8.08232 3.10651C8.05961 3.03932 8.04983 2.96812 8.05353 2.89698C8.05724 2.82585 8.07436 2.75617 8.10391 2.69192C8.13347 2.62768 8.17488 2.57013 8.22579 2.52256C8.2767 2.47499 8.33611 2.43833 8.40061 2.41467C8.46513 2.39101 8.53348 2.38082 8.60177 2.38468C8.67006 2.38854 8.73695 2.40637 8.79862 2.43716C8.8603 2.46795 8.91554 2.51109 8.96121 2.56412L10.2027 4.00787C10.2951 4.1152 10.3427 4.25635 10.3351 4.40026C10.3276 4.54417 10.2654 4.67905 10.1624 4.77525C10.0594 4.87144 9.92388 4.92105 9.78572 4.91317C9.64757 4.9053 9.51808 4.84057 9.42573 4.73324L9.42489 4.73237L9.42825 4.73149ZM13.5812 3.51962C13.5129 3.51571 13.4459 3.4978 13.3842 3.46691C13.3225 3.43602 13.2673 3.39277 13.2216 3.33962C13.176 3.28647 13.1408 3.22447 13.1182 3.15716C13.0956 3.08986 13.086 3.01857 13.0898 2.94737V2.94912L13.1906 1.01362C13.2026 0.876341 13.2644 0.748975 13.3633 0.657399C13.4622 0.565822 13.5909 0.516903 13.7232 0.520579C13.8554 0.524255 13.9814 0.580251 14.0755 0.677191C14.1696 0.774131 14.2247 0.904743 14.2297 1.04249L14.2289 1.07312V1.07137L14.1281 3.00687C14.1208 3.14523 14.0629 3.27544 13.9664 3.37078C13.8699 3.46613 13.742 3.51938 13.6089 3.51962H13.5812Z" fill="#818280"/>
</g>
<defs>
<clipPath id="clip0_814_868">
<rect width="21" height="21" fill="white" transform="translate(0 0.5)"/>
</clipPath>
</defs>
</svg>
