<svg width="23" height="23" viewBox="0 0 23 23" fill="none" xmlns="http://www.w3.org/2000/svg">
<path d="M23 11.5C23 17.8513 17.8513 23 11.5 23C5.14873 23 0 17.8513 0 11.5C0 5.14873 5.14873 0 11.5 0C17.8513 0 23 5.14873 23 11.5Z" fill="#D9D9D9"/>
<g clip-path="url(#clip0_1550_727)">
<path d="M14.75 7.16663H8.25C7.05338 7.16663 6.08333 8.13668 6.08333 9.33329V14.75C6.08333 15.9466 7.05338 16.9166 8.25 16.9166H14.75C15.9466 16.9166 16.9167 15.9466 16.9167 14.75V9.33329C16.9167 8.13668 15.9466 7.16663 14.75 7.16663Z" stroke="#416D14" stroke-width="2" stroke-linecap="round" stroke-linejoin="round"/>
<path d="M9.33333 6.08331V8.24998M13.6667 6.08331V8.24998M6.08333 10.4166H16.9167" stroke="#416D14" stroke-width="2" stroke-linecap="round" stroke-linejoin="round"/>
</g>
<defs>
<clipPath id="clip0_1550_727">
<rect width="13" height="13" fill="white" transform="translate(5 5)"/>
</clipPath>
</defs>
</svg>
