<svg width="21" height="21" viewBox="0 0 21 21" fill="none" xmlns="http://www.w3.org/2000/svg">
<g id="carbon:humidity-alt">
<path id="Vector" d="M3.93752 7.87495C4.61392 7.89297 5.26992 7.64227 5.76189 7.17772C6.25387 6.71317 6.54175 6.07262 6.56252 5.39629C6.55029 4.91341 6.40172 4.44384 6.13399 4.04179L4.4822 1.58414C4.41874 1.49964 4.33649 1.43106 4.24196 1.38383C4.14742 1.3366 4.04319 1.31201 3.93752 1.31201C3.83184 1.31201 3.72761 1.3366 3.63308 1.38383C3.53854 1.43106 3.45629 1.49964 3.39283 1.58414L1.76205 4.00964C1.48331 4.41967 1.32737 4.90072 1.31252 5.39629C1.33328 6.07262 1.62116 6.71317 2.11314 7.17772C2.60512 7.64227 3.26111 7.89297 3.93752 7.87495ZM3.93752 3.12567L5.02427 4.74201C5.16008 4.93427 5.23838 5.1612 5.25002 5.39629C5.21193 5.71764 5.05727 6.01384 4.81537 6.22877C4.57346 6.4437 4.26111 6.56241 3.93752 6.56241C3.61392 6.56241 3.30157 6.4437 3.05967 6.22877C2.81776 6.01384 2.66311 5.71764 2.62502 5.39629C2.63972 5.14845 2.72512 4.91002 2.87111 4.7092L3.93752 3.12567ZM5.57814 19.6875H15.4219C16.4791 19.6886 17.499 19.2969 18.2836 18.5883C19.0682 17.8798 19.5615 16.905 19.6678 15.8531C19.7741 14.8013 19.4858 13.7475 18.8589 12.8963C18.2319 12.0451 17.311 11.4572 16.275 11.2468C15.9954 9.92231 15.269 8.73422 14.2176 7.88163C13.1662 7.02903 11.8537 6.56374 10.5 6.56374C9.14637 6.56374 7.83385 7.02903 6.78245 7.88163C5.73104 8.73422 5.00465 9.92231 4.72502 11.2468C3.68899 11.4572 2.76811 12.0451 2.14116 12.8963C1.5142 13.7475 1.22589 14.8013 1.3322 15.8531C1.43851 16.905 1.93186 17.8798 2.71646 18.5883C3.50107 19.2969 4.52096 19.6886 5.57814 19.6875ZM10.5 7.87495C11.6204 7.876 12.7018 8.2865 13.5407 9.0292C14.3796 9.77189 14.9182 10.7956 15.055 11.9076L15.1207 12.4405L15.6555 12.4825C16.4173 12.5405 17.1268 12.8917 17.6349 13.4622C18.143 14.0327 18.41 14.778 18.3797 15.5414C18.3494 16.3047 18.0243 17.0266 17.4726 17.555C16.921 18.0835 16.1858 18.3774 15.4219 18.375H5.57814C4.8142 18.3774 4.07907 18.0835 3.52742 17.555C2.97577 17.0266 2.6506 16.3047 2.62034 15.5414C2.59007 14.778 2.85707 14.0327 3.36514 13.4622C3.87322 12.8917 4.58277 12.5405 5.34452 12.4825L5.87936 12.4405L5.94433 11.9076C6.08147 10.7956 6.62019 9.77196 7.45916 9.02931C8.29814 8.28665 9.37956 7.87613 10.5 7.87495Z" fill="#818280"/>
</g>
</svg>
