<svg width="21" height="22" viewBox="0 0 21 22" fill="none" xmlns="http://www.w3.org/2000/svg">
<g id="material-symbols:altitude-outline-rounded">
<path id="Vector" d="M16.6251 11C16.3772 11 16.1693 10.916 16.0013 10.748C15.8333 10.58 15.7496 10.3723 15.7501 10.125V7.32498L14.9408 8.11248C14.7804 8.27289 14.5835 8.35689 14.3501 8.36448C14.1168 8.37206 13.9126 8.28806 13.7376 8.11248C13.5772 7.95206 13.497 7.74789 13.497 7.49998C13.497 7.25206 13.5772 7.04789 13.7376 6.88748L16.0126 4.61248C16.1876 4.43748 16.3918 4.34998 16.6251 4.34998C16.8585 4.34998 17.0626 4.43748 17.2376 4.61248L19.5126 6.88748C19.6876 7.06248 19.7751 7.26664 19.7751 7.49998C19.7751 7.73331 19.6876 7.93748 19.5126 8.11248C19.3376 8.28748 19.1297 8.37498 18.8888 8.37498C18.6479 8.37498 18.4402 8.28748 18.2658 8.11248L17.5001 7.34685V10.125C17.5001 10.3729 17.4161 10.5809 17.2481 10.7489C17.0801 10.9169 16.8725 11.0006 16.6251 11ZM2.62514 19.75C2.26056 19.75 1.99806 19.5896 1.83764 19.2687C1.67723 18.9479 1.70639 18.6416 1.92514 18.35L5.42514 13.6906C5.60014 13.4573 5.83348 13.3406 6.12514 13.3406C6.41681 13.3406 6.65014 13.4573 6.82514 13.6906L10.0626 18H16.6251L12.2501 12.1812L10.0626 15.0687L8.96889 13.625L11.5501 10.1906C11.7251 9.95727 11.9585 9.8406 12.2501 9.8406C12.5418 9.8406 12.7751 9.95727 12.9501 10.1906L19.0751 18.35C19.2939 18.6416 19.3231 18.9479 19.1626 19.2687C19.0022 19.5896 18.7397 19.75 18.3751 19.75H2.62514Z" fill="#818280"/>
</g>
</svg>
