<svg width="24" height="24" viewBox="0 0 24 24" fill="none" xmlns="http://www.w3.org/2000/svg">
<g id="ph:chart-line">
<path id="Vector" d="M22.75 19.5C22.75 19.6989 22.671 19.8897 22.5303 20.0303C22.3897 20.171 22.1989 20.25 22 20.25H4C3.80109 20.25 3.61032 20.171 3.46967 20.0303C3.32902 19.8897 3.25 19.6989 3.25 19.5V4.5C3.25 4.30109 3.32902 4.11032 3.46967 3.96967C3.61032 3.82902 3.80109 3.75 4 3.75C4.19891 3.75 4.38968 3.82902 4.53033 3.96967C4.67098 4.11032 4.75 4.30109 4.75 4.5V13.3472L9.50594 9.1875C9.63536 9.07421 9.79978 9.00885 9.97165 9.00236C10.1435 8.99587 10.3124 9.04866 10.45 9.15188L15.9634 13.2872L21.5059 8.4375C21.5786 8.36556 21.6652 8.30925 21.7605 8.27201C21.8557 8.23478 21.9575 8.21741 22.0597 8.22097C22.1619 8.22454 22.2623 8.24896 22.3547 8.29275C22.4471 8.33653 22.5296 8.39875 22.5971 8.47558C22.6645 8.5524 22.7156 8.64222 22.7471 8.7395C22.7786 8.83678 22.7899 8.93948 22.7802 9.04128C22.7706 9.14307 22.7402 9.24182 22.691 9.33146C22.6418 9.42109 22.5748 9.49972 22.4941 9.5625L16.4941 14.8125C16.3646 14.9258 16.2002 14.9912 16.0283 14.9976C15.8565 15.0041 15.6876 14.9513 15.55 14.8481L10.0366 10.7147L4.75 15.3403V18.75H22C22.1989 18.75 22.3897 18.829 22.5303 18.9697C22.671 19.1103 22.75 19.3011 22.75 19.5Z" fill="#818280"/>
</g>
</svg>
