<svg width="21" height="22" viewBox="0 0 21 22" fill="none" xmlns="http://www.w3.org/2000/svg">
<g id="carbon:temperature-min">
<path id="Vector" d="M13.125 3.125H17.7188V4.4375H13.125V3.125ZM13.125 7.0625H19.6875V8.375H13.125V7.0625ZM13.125 11H17.7188V12.3125H13.125V11ZM7.875 15.5938C7.875 16.1159 7.66758 16.6167 7.29837 16.9859C6.92915 17.3551 6.4284 17.5625 5.90625 17.5625C5.38411 17.5625 4.88335 17.3551 4.51413 16.9859C4.14492 16.6167 3.9375 16.1159 3.9375 15.5938H7.875Z" fill="#416D14"/>
<path id="Vector_2" d="M19.6873 14.9375H10.4473C10.3078 13.9747 9.86669 13.081 9.18734 12.3847V5.09375C9.18734 4.22351 8.84163 3.38891 8.22628 2.77356C7.61093 2.1582 6.77633 1.8125 5.90609 1.8125C5.03584 1.8125 4.20124 2.1582 3.58589 2.77356C2.97054 3.38891 2.62484 4.22351 2.62484 5.09375V12.3847C2.11721 12.9027 1.73954 13.5336 1.52279 14.2257C1.30603 14.9179 1.25636 15.6515 1.37784 16.3665C1.49932 17.0815 1.78849 17.7576 2.22166 18.3393C2.65483 18.921 3.21967 19.3918 3.86989 19.7131C4.52012 20.0344 5.23721 20.197 5.96243 20.1877C6.68764 20.1784 7.40032 19.9974 8.04207 19.6595C8.68383 19.3216 9.23639 18.8365 9.65447 18.2438C10.0726 17.6512 10.3443 16.9679 10.4473 16.25H19.6873V14.9375ZM5.90609 18.875C5.24179 18.876 4.59289 18.675 4.04543 18.2987C3.49797 17.9224 3.0778 17.3887 2.84064 16.7681C2.60348 16.1476 2.56053 15.4697 2.71748 14.8242C2.87443 14.1787 3.22387 13.5962 3.71946 13.1538L3.93734 12.9576V5.09375C3.93734 4.57161 4.14476 4.07085 4.51397 3.70163C4.88318 3.33242 5.38394 3.125 5.90609 3.125C6.42823 3.125 6.92899 3.33242 7.2982 3.70163C7.66741 4.07085 7.87484 4.57161 7.87484 5.09375V12.9576L8.09271 13.1538C8.58831 13.5962 8.93774 14.1787 9.09469 14.8242C9.25164 15.4697 9.20869 16.1476 8.97153 16.7681C8.73436 17.3887 8.3142 17.9224 7.76674 18.2987C7.21928 18.675 6.57038 18.876 5.90609 18.875Z" fill="#818280"/>
</g>
</svg>
