<svg width="21" height="22" viewBox="0 0 21 22" fill="none" xmlns="http://www.w3.org/2000/svg">
<g id="carbon:soil-moisture">
<path id="Vector" d="M16.0781 18.875C15.1431 18.8953 14.2383 18.5441 13.5617 17.8985C12.8852 17.2528 12.4921 16.3653 12.4688 15.4304C12.4825 14.7699 12.6813 14.1264 13.0423 13.5732L15.4153 10.0406C15.4884 9.9319 15.587 9.84285 15.7026 9.78128C15.8182 9.7197 15.9472 9.6875 16.0781 9.6875C16.2091 9.6875 16.338 9.7197 16.4536 9.78128C16.5692 9.84285 16.6679 9.9319 16.7409 10.0406L19.0706 13.5036C19.456 14.0738 19.67 14.7424 19.6875 15.4304C19.6641 16.3653 19.2711 17.2528 18.5945 17.8985C17.918 18.5441 17.0131 18.8953 16.0781 18.875ZM16.0781 11.4069L14.1514 14.2727C13.922 14.6163 13.7937 15.0174 13.7812 15.4304C13.8251 16.0095 14.0861 16.5508 14.512 16.9457C14.9379 17.3406 15.4973 17.5601 16.0781 17.5601C16.659 17.5601 17.2183 17.3406 17.6443 16.9457C18.0702 16.5508 18.3312 16.0095 18.375 15.4304C18.3598 14.9904 18.216 14.5644 17.9616 14.2052L16.0781 11.4069Z" fill="#818280"/>
<path id="Vector_2" d="M3.28125 9.6875C3.64369 9.6875 3.9375 9.39369 3.9375 9.03125C3.9375 8.66881 3.64369 8.375 3.28125 8.375C2.91881 8.375 2.625 8.66881 2.625 9.03125C2.625 9.39369 2.91881 9.6875 3.28125 9.6875Z" fill="#818280"/>
<path id="Vector_3" d="M7.21875 13.625C7.58119 13.625 7.875 13.3312 7.875 12.9688C7.875 12.6063 7.58119 12.3125 7.21875 12.3125C6.85631 12.3125 6.5625 12.6063 6.5625 12.9688C6.5625 13.3312 6.85631 13.625 7.21875 13.625Z" fill="#818280"/>
<path id="Vector_4" d="M9.84375 17.5625C10.2062 17.5625 10.5 17.2687 10.5 16.9062C10.5 16.5438 10.2062 16.25 9.84375 16.25C9.48131 16.25 9.1875 16.5438 9.1875 16.9062C9.1875 17.2687 9.48131 17.5625 9.84375 17.5625Z" fill="#818280"/>
<path id="Vector_5" d="M11.1562 11C11.5187 11 11.8125 10.7062 11.8125 10.3438C11.8125 9.98131 11.5187 9.6875 11.1562 9.6875C10.7938 9.6875 10.5 9.98131 10.5 10.3438C10.5 10.7062 10.7938 11 11.1562 11Z" fill="#818280"/>
<path id="Vector_6" d="M8.53125 8.375C8.89369 8.375 9.1875 8.08119 9.1875 7.71875C9.1875 7.35631 8.89369 7.0625 8.53125 7.0625C8.16881 7.0625 7.875 7.35631 7.875 7.71875C7.875 8.08119 8.16881 8.375 8.53125 8.375Z" fill="#818280"/>
<path id="Vector_7" d="M17.7188 8.375C18.0812 8.375 18.375 8.08119 18.375 7.71875C18.375 7.35631 18.0812 7.0625 17.7188 7.0625C17.3563 7.0625 17.0625 7.35631 17.0625 7.71875C17.0625 8.08119 17.3563 8.375 17.7188 8.375Z" fill="#818280"/>
<path id="Vector_8" d="M5.90625 18.875C6.26869 18.875 6.5625 18.5812 6.5625 18.2188C6.5625 17.8563 6.26869 17.5625 5.90625 17.5625C5.54381 17.5625 5.25 17.8563 5.25 18.2188C5.25 18.5812 5.54381 18.875 5.90625 18.875Z" fill="#818280"/>
<path id="Vector_9" d="M1.96875 14.9375C2.33119 14.9375 2.625 14.6437 2.625 14.2812C2.625 13.9188 2.33119 13.625 1.96875 13.625C1.60631 13.625 1.3125 13.9188 1.3125 14.2812C1.3125 14.6437 1.60631 14.9375 1.96875 14.9375Z" fill="#818280"/>
<path id="Vector_10" d="M1.3125 4.4375H19.6875V5.75H1.3125V4.4375Z" fill="#818280"/>
</g>
</svg>
