<svg width="21" height="22" viewBox="0 0 21 22" fill="none" xmlns="http://www.w3.org/2000/svg">
<g id="fluent-emoji-high-contrast:leaf-fluttering-in-wind">
<g id="Group">
<path id="Vector" d="M2.92041 4.77875C2.87738 4.77927 2.83471 4.77079 2.79515 4.75383C2.75559 4.73688 2.72002 4.71184 2.69072 4.68031C2.55947 4.54906 2.55947 4.34562 2.69072 4.21438C4.24604 2.66562 6.30666 1.8125 8.5051 1.8125C9.31229 1.8125 10.1195 1.93062 10.8873 2.16687C10.9696 2.19261 11.0385 2.24974 11.079 2.32589C11.1196 2.40203 11.1285 2.49108 11.1038 2.57375C11.0513 2.75094 10.8676 2.84938 10.697 2.79031C9.98555 2.57854 9.24736 2.47024 8.5051 2.46875C6.48385 2.46875 4.58072 3.25625 3.15666 4.68688C3.09104 4.7525 3.00572 4.77875 2.92041 4.77875Z" fill="#818280"/>
<path id="Vector_2" d="M1.64062 11.315C1.45687 11.315 1.3125 11.1706 1.3125 10.9869C1.3125 7.02312 4.54125 3.79437 8.505 3.79437C8.68875 3.79437 8.83313 3.93875 8.83313 4.1225C8.83313 4.30625 8.68875 4.45062 8.505 4.45062C4.90219 4.45062 1.96875 7.38406 1.96875 10.9869C1.96875 11.1706 1.82437 11.315 1.64062 11.315ZM14.6409 11.315C14.6409 11.4987 14.7853 11.6431 14.9691 11.6431C15.9469 11.6431 16.8853 11.3478 17.6794 10.7834C18.2995 10.3474 18.8057 9.7686 19.1552 9.09587C19.5047 8.42314 19.6873 7.67622 19.6875 6.91812C19.6875 6.74093 19.5431 6.59 19.3594 6.59C19.1756 6.59 19.0312 6.73437 19.0312 6.91812C19.0312 8.24375 18.3816 9.48406 17.3053 10.2519C16.6203 10.7306 15.8048 10.9872 14.9691 10.9869C14.7853 10.9869 14.6409 11.1312 14.6409 11.315Z" fill="#818280"/>
<path id="Vector_3" d="M4.26562 10.4008L4.8405 11H9.48019C13.7084 11 17.0822 14.6008 17.0822 18.9669V19.3803C17.0822 20.1632 16.4706 20.8569 15.6463 20.8569H10.8832C6.65437 20.8569 3.28125 17.256 3.28125 12.89V9.11656C3.28125 8.8475 3.50437 8.62437 3.77344 8.62437C4.0425 8.62437 4.26562 8.8475 4.26562 9.11656V10.4008ZM10.8832 19.5444H15.6463C15.6607 19.544 15.6749 19.5406 15.6879 19.5344C15.7009 19.5282 15.7125 19.5193 15.7218 19.5083C15.7536 19.4734 15.7708 19.4275 15.7697 19.3803V18.9669C15.7697 15.261 12.9216 12.3125 9.48019 12.3125H4.69087C4.77159 12.388 4.8615 12.4542 4.96125 12.5094L12.7706 16.775C13.0069 16.9062 13.0988 17.2016 12.9675 17.4444C12.8822 17.6084 12.7116 17.7003 12.5409 17.7003C12.4622 17.7003 12.3834 17.6806 12.3047 17.6412L4.61475 13.4412C4.88053 16.8833 7.61512 19.5444 10.8832 19.5444ZM18.375 2.16031C18.375 1.97656 18.2241 1.82562 18.0403 1.82562C17.8566 1.82562 17.7056 1.97656 17.7056 2.16031V3.29037L17.4976 3.45312H14.2295C11.3925 3.45312 9.12844 5.93703 9.12844 8.83437V9.11656C9.12844 9.59431 9.50381 10.0025 9.99403 10.0025H13.2746C16.1031 10.0025 18.375 7.62556 18.375 4.71969V2.16031ZM17.5882 4.10937C17.5061 4.25506 17.3841 4.37844 17.2331 4.46375L11.9306 7.35781C11.7666 7.44312 11.7075 7.64656 11.7994 7.81062C11.8417 7.88843 11.9128 7.9465 11.9976 7.97228C12.0823 7.99807 12.1737 7.9895 12.2522 7.94843L17.5547 5.05437C17.6095 5.02376 17.6625 4.99002 17.7135 4.95331C17.596 7.41097 15.643 9.34625 13.2746 9.34625H9.99337C9.88969 9.34625 9.78469 9.25569 9.78469 9.11656V8.83437C9.78469 6.25859 11.7941 4.10937 14.2288 4.10937H17.5882Z" fill="#818280"/>
</g>
</g>
</svg>
